<?xml version="1.0" encoding="utf-8"?>
<!-- Generator: Adobe Illustrator 17.1.0, SVG Export Plug-In . SVG Version: 6.00 Build 0)  -->
<!DOCTYPE svg PUBLIC "-//W3C//DTD SVG 1.1//EN" "http://www.w3.org/Graphics/SVG/1.1/DTD/svg11.dtd">
<svg version="1.1" id="Layer_1" xmlns="http://www.w3.org/2000/svg" xmlns:xlink="http://www.w3.org/1999/xlink" x="0px" y="0px"
	 viewBox="0 0 200 31.4" enable-background="new 0 0 200 31.4" xml:space="preserve">
<g id="Layer1000">
	<path id="path13" fill="#D4CED2" d="M190.2,7.4c-0.5-0.3-1.1-0.5-1.8-0.6c-0.7-0.1-1.4-0.1-2.1-0.1c-0.4,0-0.9,0-1.6,0
		s-1.5,0-2.5,0l-0.4,8.1l-0.4,14.8l-3.1,0c-0.5,0-1.5,0-3,0c0.4-3.9,0.7-8.4,0.9-13.5c0.2-5.1,0.3-9.6,0.3-13.4c1.6,0,2.9,0,4,0
		c1.1,0,2.3,0,3.4-0.1c1.1,0,2.3-0.1,3.5-0.1c1.5,0,2.9,0.1,4.1,0.3c1.2,0.2,2.3,0.6,3.2,1.2c0.3,0.2,0.6,0.4,0.8,0.7
		C195.5,4.7,190.5,7.6,190.2,7.4L190.2,7.4z M197.2,7.4c0.2,0.6,0.2,1.2,0.2,1.9c0,0.7-0.1,1.4-0.3,2.1c-0.2,0.7-0.4,1.3-0.8,1.9
		c-0.3,0.6-0.7,1.1-1.2,1.5c-0.5,0.4-0.9,0.8-1.4,1c-0.5,0.3-1,0.5-1.6,0.7c-0.6,0.2-1.4,0.4-2.3,0.7l1.3,2.6
		c0.4,0.8,1.3,2.3,2.5,4.5l2,3.5c0.1,0.2,0.4,0.8,1,1.8c-1.6,0-2.7,0-3.2,0c-0.6,0-1.7,0-3.3,0l-2.2-5.3c-0.4-0.8-0.8-1.8-1.4-2.8
		l-2.4-4.8c-0.2-0.5-0.6-1.1-1-2c0.9,0.2,1.7,0.2,2.4,0.2c1.1,0,2.2-0.2,3.1-0.6c0.9-0.4,1.7-0.9,2.2-1.7c0.5-0.8,0.7-1.2,0.6-2.1
		C191.5,10.3,196.4,7.9,197.2,7.4L197.2,7.4z"/>
	<path id="path15" fill="#D4CED2" d="M120.1,29.7l0.6-7.6l0.4-8.8l0.3-8V2.7c3.3,0,6.6,0,10.2,0l3.8,0l5.7,0L140.8,7l-1.9-0.1
		c-0.5,0-1.2,0-2.1-0.1c-0.9,0-1.8,0-2.8,0c-2.1,0-3.4,0-4,0c-0.6,0-1.5,0-2.7,0.1l-0.3,7c1.8,0,3.6,0.1,5.5,0.1
		c1.3,0,3.4,0,6.4-0.1c-0.1,1.2-0.2,2.6-0.3,4.3c-3.5,0-5.5-0.1-6-0.1c-1.6,0-3.5,0-5.8,0.1l-0.3,7.4l2.2,0c0.6,0,2.1,0,4.3,0
		l4.3-0.1l2.9-0.1c-0.1,1.5-0.2,3-0.3,4.3c-3.4,0-6.5,0-9.3,0l-6.5,0L120.1,29.7L120.1,29.7z"/>
	<path id="path17" fill="#D4CED2" d="M104.8,14.2c1.8,0,3.6,0,5.2,0c2.2,0,4,0,5.4,0c-0.3,4.4-0.6,9.3-0.7,14.7
		c-2.2,0.4-4.2,0.7-5.9,0.9c-1.8,0.2-3.3,0.3-4.5,0.3c-2.3,0-4.5-0.2-6.5-0.7c-2-0.5-3.7-1.3-5-2.4c-1.4-1.1-2.4-2.5-3.1-4.3
		c-0.7-1.8-1.1-3.7-1.1-5.7c0-1.7,0.3-3.3,0.8-4.9c0.5-1.6,1.3-3,2.4-4.3c1-1.3,2.3-2.4,3.8-3.3c1.5-0.9,3.1-1.5,4.7-1.8
		c1.7-0.3,3.4-0.5,5.3-0.5c2.6,0,5.5,0.3,8.8,1c0,1.5,0.1,3.1,0.2,4.7c-3.1-1.1-5.9-1.6-8.4-1.6c-1.6,0-3.2,0.2-4.6,0.7
		c-1.4,0.5-2.7,1.2-3.7,2.1c-1,1-1.8,2.2-2.4,3.6c-0.5,1.4-0.8,2.9-0.8,4.4c0,1.7,0.3,3.2,0.9,4.6c0.6,1.3,1.7,2.4,3.2,3.1
		c1.5,0.7,3.2,1.1,5.1,1.1c0.7,0,1.5-0.1,2.5-0.2c0.9-0.1,1.9-0.3,3-0.6l0.3-6.9l-1.6,0c-0.9,0-2,0-3.4,0.1
		C104.8,16.5,104.8,15.2,104.8,14.2L104.8,14.2z"/>
	<path id="path19" fill="#D4CED2" d="M66.2,29.7c0.2-2.6,0.4-4.7,0.5-6.2c0.1-2.6,0.3-6.4,0.5-11.3c0.1-3.6,0.2-6.2,0.2-7.7V2.7
		c3.8,0,7.1,0,9.9,0l5.5,0l3.3,0c-0.1,2-0.2,3.4-0.2,4.3L83,6.8l-1.1,0h-1.5h-3l-4.1,0L73,13.9l3.4,0.1c2.6,0,4.2,0,4.9,0l2.7,0
		c-0.1,1.5-0.1,2.9-0.2,4.2c-2.3-0.1-4.1-0.1-5.5-0.1c-1.7,0-3.6,0-5.6,0.1l-0.2,8.7l0,1.8v1l-3,0C69.3,29.6,68.2,29.6,66.2,29.7
		L66.2,29.7z"/>
	<path id="path21" fill="#D4CED2" d="M54.6,9.2c0.3-0.2,4.7-2.7,4.9-2.4C60.8,8,60.6,8,61.3,9.5c0.7,1.6,1.1,3.5,1.1,5.7
		c0,2-0.3,4-1,5.8c-0.7,1.8-1.7,3.4-3.1,4.8c-1.4,1.3-3.1,2.3-5.2,3c-2,0.6-4.1,1-6.4,1c-2.1,0-4.1-0.3-6.1-0.9
		c-1.9-0.6-3.6-1.5-5-2.8c-1.4-1.3-2.4-2.7-3-4.4c-0.6-1.6-0.9-3.4-0.9-5.3c0-2.1,0.4-4.1,1.1-6c0.8-1.9,1.9-3.5,3.3-4.7
		c1.5-1.2,3.2-2.2,5.2-2.8c2-0.6,4.1-1,6.4-1c2,0,3.9,0.3,5.7,0.8c2,0.9,4.5,1.1,2.1,2.2c-1.5,0.7-3.6,2.1-4.4,1.8
		C49.9,6.2,48.6,6,47.4,6c-2,0-3.7,0.5-5.2,1.4c-1.5,0.9-2.6,2.2-3.3,3.8c-0.7,1.6-1.1,3.3-1.1,5.1c0,1.7,0.4,3.3,1.1,4.7
		c0.7,1.4,1.8,2.5,3.3,3.3c1.5,0.8,3.1,1.1,4.8,1.1c1.3,0,2.6-0.2,3.7-0.7c1.2-0.4,2.2-1.1,3.1-2c0.9-0.9,1.5-2,1.9-3.3
		c0.4-1.3,0.7-2.6,0.7-4c0-1.3-0.2-2.6-0.6-3.8C55.4,10.4,55.4,10.1,54.6,9.2z"/>
	<path id="path23" fill="#D4CED2" d="M25.9,8.4c0.7-0.4,1.1-0.3,1.2,0.4c0.5,0.9,0.7,1.7,0.9,2.8c0.2,1.1,0.4,2.3,0.4,3.5
		c0,2.3-0.4,4.4-1.2,6.5c-0.8,2.1-2,3.7-3.5,5.1c-1.6,1.3-3.3,2.2-5.2,2.6c-1.9,0.4-4,0.6-6.4,0.6l-6.7,0c-0.4,0-1.7,0-3.8,0
		l0.5-6.9l0.4-8.6l0.3-8.6c0-0.4,0-1.4,0-2.9c1.5,0,2.8,0,4.1,0c1,0,2.2,0,3.8-0.1c1.6,0,2.9-0.1,4.1-0.1c1.6,0,3,0.1,4.3,0.3
		c1.3,0.2,4,1.4,5,1.9c-0.7,0.8-5,3-5.5,2.8c-1.1-0.6-2.8-0.8-5.1-0.8c-1.5,0-3.2,0-5.1,0.1L7.7,25.6c1.1,0.1,2.1,0.1,3.2,0.1
		c1.2,0,2.3-0.1,3.3-0.2c1-0.1,1.9-0.3,2.6-0.6c0.7-0.3,1.5-0.7,2.2-1.4c0.7-0.6,1.3-1.4,1.8-2.2c0.5-0.9,0.8-1.8,1.1-2.8
		c0.2-1,0.4-2.1,0.4-3.2c0-2-0.1-3.2-0.8-4.5C21.1,10.7,23.3,9.8,25.9,8.4L25.9,8.4z"/>
	<path id="path25" fill="#D4CED2" d="M166.3,10.1l6.5,17.5l0.9,2.2l-3,0c-0.7,0-1.8,0-3.5,0c-0.3-1.2-0.8-2.8-1.5-4.7
		c-0.7-2-1.3-3.6-1.7-4.8h-10.4c-1.5,3.1-3,6.3-4.5,9.6l-3.2,0c-0.6,0-1.7,0-3.4,0c1.4-2.4,3-5.4,4.8-9l5.2-10c1.6-3.1,3-5.8,4-8
		c1.7,0,2.9,0,3.6,0c1.3,0,2.5,0,3.7,0l1.5,4.2l-4.7,2.3L159.7,7l-4.5,9.1h7.6l-1.3-3.8L166.3,10.1L166.3,10.1z"/>
</g>
</svg>
